<?xml version="1.0" encoding="UTF-8"?>
<svg id="Capa_1" xmlns="http://www.w3.org/2000/svg" version="1.1" viewBox="0 0 100 100">
  <!-- Generator: Adobe Illustrator 29.7.1, SVG Export Plug-In . SVG Version: 2.1.1 Build 8)  -->
  <path d="M39.14,62.88c-.81-1.65-1.51-3.32-1.94-5.11-5.2-21.53,17.47-38.6,36.91-28.45,21.29,11.11,16.41,42.59-7.21,47.13-3.16.61-6.3.32-9.5.38l3.57-10.13c.26-.32,1.5-.12,2-.16,9.75-.87,16.52-9.53,13.74-19.22-3.33-11.62-18.69-14.64-26.44-5.43-5.34,6.35-4.31,15.49,1.66,21h-12.78Z"/>
  <path d="M38.81,26.36c-.83,2.68-1.73,5.39-2.65,8.05-2.5,7.2-5.25,14.34-7.65,21.57-.82,2.48-1.77,4.99-.07,7.38.58.81,2.49,2.17,3.48,2.17h26.48l-4.09,11.3H21.13c-6.59-1.01-9.84-5.96-8.47-12.47l13.04-38.01h13.11Z"/>
  <path d="M80.44,51.09c.47.4.07.72-.55.75-3.64.14-9.59.98-12.61,3.04-4.18,2.84-4.91,10.93-5.09,15.58-.43.51-.71.05-.74-.56-.16-3.52-1.37-11.53-3.92-13.97-3.38-3.24-10.23-3.87-14.71-4.1-.47-.4-.07-.72.55-.75,4.03-.16,11.82-1.27,14.54-4.46,2.69-3.14,3.15-10.5,3.53-14.54.72.15.66.74.75,1.3.67,4.23.66,9.75,3.52,13.24s10.5,4.32,14.72,4.46Z"/>
</svg>